<?xml version="1.0" standalone="no"?>
<!DOCTYPE svg PUBLIC "-//W3C//DTD SVG 20010904//EN"
 "http://www.w3.org/TR/2001/REC-SVG-20010904/DTD/svg10.dtd">
<svg version="1.0" xmlns="http://www.w3.org/2000/svg"
 width="100.000000pt" height="87.000000pt" viewBox="0 0 100.000000 87.000000"
 preserveAspectRatio="xMidYMid meet">

<g transform="translate(0.000000,87.000000) scale(0.100000,-0.100000)"
fill="#000000" stroke="none">
<path d="M0 435 l0 -435 500 0 500 0 0 435 0 435 -500 0 -500 0 0 -435z m667
294 c112 -53 178 -161 178 -289 0 -129 -66 -234 -181 -291 -60 -30 -72 -32
-167 -32 -132 0 -199 24 -273 97 -185 186 -80 506 181 547 88 13 193 1 262
-32z"/>
<path d="M393 730 c-96 -20 -165 -79 -211 -178 -21 -46 -24 -65 -20 -126 6
-84 31 -139 92 -200 52 -52 116 -76 205 -76 197 0 330 191 272 390 -17 59
-121 164 -177 179 -63 17 -116 20 -161 11z m70 -35 c-1 -5 -28 -17 -60 -25
-32 -9 -73 -27 -92 -40 -42 -31 -84 -102 -91 -154 -7 -53 -30 -61 -30 -9 1 70
60 167 124 200 70 36 154 52 149 28z m27 -84 c0 -13 11 -23 34 -31 53 -17 64
-36 38 -63 -19 -18 -25 -20 -42 -9 -11 6 -35 12 -54 12 -69 0 -102 -94 -51
-145 28 -29 79 -33 105 -10 15 13 19 12 40 -10 28 -29 18 -48 -36 -65 -19 -6
-34 -18 -34 -26 0 -9 -11 -14 -30 -14 -22 0 -30 5 -30 18 0 10 -16 24 -40 35
-43 20 -80 81 -80 133 1 53 35 111 79 134 27 13 41 27 41 40 0 16 7 20 30 20
23 0 30 -5 30 -19z"/>
<path d="M698 663 c7 -3 16 -2 19 1 4 3 -2 6 -13 5 -11 0 -14 -3 -6 -6z"/>
<path d="M730 610 c0 -5 9 -10 21 -10 11 0 17 5 14 10 -3 6 -13 10 -21 10 -8
0 -14 -4 -14 -10z"/>
<path d="M755 560 c3 -5 15 -10 26 -10 11 0 17 5 14 10 -3 6 -15 10 -26 10
-11 0 -17 -4 -14 -10z"/>
<path d="M770 510 c0 -5 9 -10 20 -10 11 0 20 5 20 10 0 6 -9 10 -20 10 -11 0
-20 -4 -20 -10z"/>
<path d="M780 455 c0 -8 9 -15 20 -15 11 0 20 7 20 15 0 8 -9 15 -20 15 -11 0
-20 -7 -20 -15z"/>
<path d="M780 400 c0 -5 9 -10 20 -10 11 0 20 5 20 10 0 6 -9 10 -20 10 -11 0
-20 -4 -20 -10z"/>
<path d="M765 350 c-3 -5 3 -10 14 -10 11 0 23 5 26 10 3 6 -3 10 -14 10 -11
0 -23 -4 -26 -10z"/>
<path d="M745 300 c-3 -5 3 -10 14 -10 11 0 23 5 26 10 3 6 -3 10 -14 10 -11
0 -23 -4 -26 -10z"/>
<path d="M715 250 c-3 -5 3 -10 14 -10 11 0 23 5 26 10 3 6 -3 10 -14 10 -11
0 -23 -4 -26 -10z"/>
</g>
</svg>
